<svg width="147" height="21" viewBox="0 0 147 21" fill="none" xmlns="http://www.w3.org/2000/svg">
<path d="M8.38965 0.359375V16H5.17773V0.359375H8.38965ZM13.2021 0.359375V2.88379H0.44043V0.359375H13.2021ZM27.1348 7.8252V14.0234C26.8913 14.3171 26.5153 14.6357 26.0068 14.9795C25.4984 15.3161 24.8431 15.6061 24.041 15.8496C23.2389 16.0931 22.2686 16.2148 21.1299 16.2148C20.1201 16.2148 19.1999 16.0501 18.3691 15.7207C17.5384 15.3841 16.8223 14.8936 16.2207 14.249C15.6263 13.6045 15.168 12.8167 14.8457 11.8857C14.5234 10.9476 14.3623 9.87695 14.3623 8.67383V7.69629C14.3623 6.49316 14.5163 5.42253 14.8242 4.48438C15.1393 3.54622 15.5869 2.75488 16.167 2.11035C16.7471 1.46582 17.4382 0.97526 18.2402 0.638672C19.0423 0.302083 19.9339 0.133789 20.915 0.133789C22.2757 0.133789 23.3929 0.355794 24.2666 0.799805C25.1403 1.23665 25.8063 1.84538 26.2646 2.62598C26.7301 3.39941 27.0166 4.28743 27.124 5.29004H23.998C23.9193 4.76009 23.7689 4.29818 23.5469 3.9043C23.3249 3.51042 23.0062 3.20247 22.5908 2.98047C22.1826 2.75846 21.6527 2.64746 21.001 2.64746C20.4639 2.64746 19.984 2.75846 19.5615 2.98047C19.1462 3.19531 18.7952 3.514 18.5088 3.93652C18.2223 4.35905 18.0039 4.88184 17.8535 5.50488C17.7031 6.12793 17.6279 6.85124 17.6279 7.6748V8.67383C17.6279 9.49023 17.7067 10.2135 17.8643 10.8438C18.0218 11.4668 18.2546 11.9932 18.5625 12.4229C18.8776 12.8454 19.2643 13.1641 19.7227 13.3789C20.181 13.5938 20.7145 13.7012 21.3232 13.7012C21.8317 13.7012 22.2542 13.6582 22.5908 13.5723C22.9346 13.4863 23.2103 13.3825 23.418 13.2607C23.6328 13.1318 23.7975 13.0101 23.9121 12.8955V10.124H20.9688V7.8252H27.1348ZM42.4639 0.359375V16H39.2412L32.957 5.51562V16H29.7344V0.359375H32.957L39.252 10.8545V0.359375H42.4639Z" fill="#1AA4BC"/>
<path d="M56.9551 1.74512L51.7773 16H49.6611L55.623 0.359375H56.9873L56.9551 1.74512ZM61.2949 16L56.1064 1.74512L56.0742 0.359375H57.4385L63.4219 16H61.2949ZM61.0264 10.21V11.9072H52.2393V10.21H61.0264ZM67.7402 0.359375V16H65.667V0.359375H67.7402ZM85.3037 12.0469C85.3037 11.6816 85.2464 11.3594 85.1318 11.0801C85.0244 10.7936 84.8311 10.5358 84.5518 10.3066C84.2796 10.0775 83.9001 9.85905 83.4131 9.65137C82.9333 9.44368 82.3245 9.23242 81.5869 9.01758C80.8135 8.78841 80.1152 8.53418 79.4922 8.25488C78.8691 7.96842 78.3356 7.64258 77.8916 7.27734C77.4476 6.91211 77.1074 6.49316 76.8711 6.02051C76.6348 5.54785 76.5166 5.00716 76.5166 4.39844C76.5166 3.78971 76.6419 3.22754 76.8926 2.71191C77.1432 2.19629 77.5013 1.7487 77.9668 1.36914C78.4395 0.982422 79.0016 0.681641 79.6533 0.466797C80.305 0.251953 81.0319 0.144531 81.834 0.144531C83.0085 0.144531 84.0039 0.370117 84.8203 0.821289C85.6439 1.2653 86.2705 1.84896 86.7002 2.57227C87.1299 3.28841 87.3447 4.05469 87.3447 4.87109H85.2822C85.2822 4.28385 85.1569 3.76465 84.9062 3.31348C84.6556 2.85514 84.276 2.49707 83.7676 2.23926C83.2591 1.97428 82.6146 1.8418 81.834 1.8418C81.0964 1.8418 80.4876 1.9528 80.0078 2.1748C79.528 2.39681 79.1699 2.69759 78.9336 3.07715C78.7044 3.45671 78.5898 3.88997 78.5898 4.37695C78.5898 4.70638 78.6579 5.00716 78.7939 5.2793C78.9372 5.54427 79.1556 5.79134 79.4492 6.02051C79.75 6.24967 80.1296 6.46094 80.5879 6.6543C81.0534 6.84766 81.6084 7.03385 82.2529 7.21289C83.141 7.46354 83.9072 7.74284 84.5518 8.05078C85.1963 8.35872 85.7262 8.70605 86.1416 9.09277C86.5641 9.47233 86.8757 9.9056 87.0762 10.3926C87.2839 10.8724 87.3877 11.4167 87.3877 12.0254C87.3877 12.6628 87.2588 13.2393 87.001 13.7549C86.7432 14.2705 86.3743 14.7109 85.8945 15.0762C85.4147 15.4414 84.8382 15.7243 84.165 15.9248C83.499 16.1182 82.7542 16.2148 81.9307 16.2148C81.2074 16.2148 80.4948 16.1146 79.793 15.9141C79.0983 15.7135 78.4645 15.4128 77.8916 15.0117C77.3258 14.6107 76.8711 14.1165 76.5273 13.5293C76.1908 12.9349 76.0225 12.2474 76.0225 11.4668H78.085C78.085 12.0039 78.1888 12.4658 78.3965 12.8525C78.6042 13.2321 78.887 13.5472 79.2451 13.7979C79.6104 14.0485 80.0221 14.2347 80.4805 14.3564C80.946 14.471 81.4294 14.5283 81.9307 14.5283C82.654 14.5283 83.2663 14.4281 83.7676 14.2275C84.2689 14.027 84.6484 13.7406 84.9062 13.3682C85.1712 12.9958 85.3037 12.5553 85.3037 12.0469ZM92.9951 14.7969L96.2285 4.37695H98.3555L93.6934 17.7939C93.5859 18.0804 93.4427 18.3883 93.2637 18.7178C93.0918 19.0544 92.8698 19.373 92.5977 19.6738C92.3255 19.9746 91.9961 20.2181 91.6094 20.4043C91.2298 20.5977 90.7751 20.6943 90.2451 20.6943C90.0876 20.6943 89.887 20.6729 89.6436 20.6299C89.4001 20.5869 89.2282 20.5511 89.1279 20.5225L89.1172 18.9111C89.1745 18.9183 89.264 18.9255 89.3857 18.9326C89.5146 18.9469 89.6042 18.9541 89.6543 18.9541C90.1055 18.9541 90.4886 18.8932 90.8037 18.7715C91.1188 18.6569 91.3838 18.46 91.5986 18.1807C91.8206 17.9085 92.0104 17.5326 92.168 17.0527L92.9951 14.7969ZM90.6211 4.37695L93.6396 13.4004L94.1553 15.4951L92.7266 16.2256L88.4512 4.37695H90.6211ZM106.917 12.917C106.917 12.6305 106.853 12.3656 106.724 12.1221C106.602 11.8714 106.348 11.6458 105.961 11.4453C105.581 11.2376 105.008 11.0586 104.242 10.9082C103.598 10.7721 103.014 10.611 102.491 10.4248C101.976 10.2386 101.535 10.013 101.17 9.74805C100.812 9.48307 100.536 9.17155 100.343 8.81348C100.149 8.4554 100.053 8.03646 100.053 7.55664C100.053 7.09831 100.153 6.66504 100.354 6.25684C100.561 5.84863 100.851 5.48698 101.224 5.17188C101.603 4.85677 102.058 4.6097 102.588 4.43066C103.118 4.25163 103.709 4.16211 104.36 4.16211C105.291 4.16211 106.086 4.32682 106.745 4.65625C107.404 4.98568 107.909 5.42611 108.26 5.97754C108.611 6.52181 108.786 7.12695 108.786 7.79297H106.799C106.799 7.4707 106.702 7.15918 106.509 6.8584C106.323 6.55046 106.047 6.29622 105.682 6.0957C105.324 5.89518 104.883 5.79492 104.36 5.79492C103.809 5.79492 103.361 5.88086 103.018 6.05273C102.681 6.21745 102.434 6.42871 102.276 6.68652C102.126 6.94434 102.051 7.21647 102.051 7.50293C102.051 7.71777 102.087 7.91113 102.158 8.08301C102.237 8.24772 102.373 8.40169 102.566 8.54492C102.76 8.68099 103.032 8.8099 103.383 8.93164C103.734 9.05339 104.181 9.17513 104.726 9.29688C105.678 9.51172 106.462 9.76953 107.078 10.0703C107.694 10.3711 108.152 10.7399 108.453 11.1768C108.754 11.6136 108.904 12.1436 108.904 12.7666C108.904 13.2751 108.797 13.7406 108.582 14.1631C108.374 14.5856 108.07 14.9508 107.669 15.2588C107.275 15.5596 106.802 15.7959 106.251 15.9678C105.707 16.1325 105.094 16.2148 104.414 16.2148C103.39 16.2148 102.523 16.0322 101.814 15.667C101.105 15.3018 100.568 14.8291 100.203 14.249C99.8379 13.6689 99.6553 13.0566 99.6553 12.4121H101.653C101.682 12.9564 101.84 13.3896 102.126 13.7119C102.412 14.027 102.763 14.2526 103.179 14.3887C103.594 14.5176 104.006 14.582 104.414 14.582C104.958 14.582 105.413 14.5104 105.778 14.3672C106.151 14.224 106.434 14.027 106.627 13.7764C106.82 13.5257 106.917 13.2393 106.917 12.917ZM116.381 4.37695V5.90234H110.097V4.37695H116.381ZM112.224 1.55176H114.211V13.1211C114.211 13.515 114.272 13.8122 114.394 14.0127C114.515 14.2132 114.673 14.3457 114.866 14.4102C115.06 14.4746 115.267 14.5068 115.489 14.5068C115.654 14.5068 115.826 14.4925 116.005 14.4639C116.191 14.4281 116.331 14.3994 116.424 14.3779L116.435 16C116.277 16.0501 116.069 16.0967 115.812 16.1396C115.561 16.1898 115.257 16.2148 114.898 16.2148C114.411 16.2148 113.964 16.1182 113.556 15.9248C113.147 15.7314 112.822 15.4092 112.578 14.958C112.342 14.4997 112.224 13.8838 112.224 13.1104V1.55176ZM123.535 16.2148C122.726 16.2148 121.992 16.0788 121.333 15.8066C120.681 15.5273 120.119 15.137 119.646 14.6357C119.181 14.1344 118.823 13.54 118.572 12.8525C118.322 12.165 118.196 11.4131 118.196 10.5967V10.1455C118.196 9.2002 118.336 8.35872 118.615 7.62109C118.895 6.8763 119.274 6.24609 119.754 5.73047C120.234 5.21484 120.778 4.82454 121.387 4.55957C121.995 4.2946 122.626 4.16211 123.277 4.16211C124.108 4.16211 124.824 4.30534 125.426 4.5918C126.035 4.87826 126.532 5.2793 126.919 5.79492C127.306 6.30339 127.592 6.90495 127.778 7.59961C127.965 8.28711 128.058 9.03906 128.058 9.85547V10.7471H119.378V9.125H126.07V8.97461C126.042 8.45898 125.934 7.95768 125.748 7.4707C125.569 6.98372 125.283 6.58268 124.889 6.26758C124.495 5.95247 123.958 5.79492 123.277 5.79492C122.826 5.79492 122.411 5.8916 122.031 6.08496C121.652 6.27116 121.326 6.55046 121.054 6.92285C120.782 7.29525 120.57 7.75 120.42 8.28711C120.27 8.82422 120.194 9.44368 120.194 10.1455V10.5967C120.194 11.1481 120.27 11.6673 120.42 12.1543C120.577 12.6341 120.803 13.0566 121.097 13.4219C121.397 13.7871 121.759 14.0736 122.182 14.2812C122.611 14.4889 123.098 14.5928 123.643 14.5928C124.344 14.5928 124.939 14.4495 125.426 14.1631C125.913 13.8766 126.339 13.4935 126.704 13.0137L127.907 13.9697C127.657 14.3493 127.338 14.7109 126.951 15.0547C126.564 15.3984 126.088 15.6777 125.522 15.8926C124.964 16.1074 124.301 16.2148 123.535 16.2148ZM132.354 6.68652V16H130.356V4.37695H132.247L132.354 6.68652ZM131.946 9.74805L131.022 9.71582C131.03 8.9209 131.133 8.18685 131.334 7.51367C131.535 6.83333 131.832 6.24251 132.226 5.74121C132.619 5.23991 133.11 4.85319 133.697 4.58105C134.285 4.30176 134.965 4.16211 135.738 4.16211C136.283 4.16211 136.784 4.24089 137.242 4.39844C137.701 4.54883 138.098 4.78874 138.435 5.11816C138.771 5.44759 139.033 5.87012 139.219 6.38574C139.405 6.90137 139.498 7.52441 139.498 8.25488V16H137.511V8.35156C137.511 7.74284 137.407 7.25586 137.199 6.89062C136.999 6.52539 136.712 6.26042 136.34 6.0957C135.967 5.92383 135.531 5.83789 135.029 5.83789C134.442 5.83789 133.951 5.94173 133.558 6.14941C133.164 6.3571 132.849 6.64355 132.612 7.00879C132.376 7.37402 132.204 7.79297 132.097 8.26562C131.996 8.73112 131.946 9.22526 131.946 9.74805ZM139.477 8.65234L138.145 9.06055C138.152 8.42318 138.256 7.81087 138.456 7.22363C138.664 6.63639 138.961 6.11361 139.348 5.65527C139.742 5.19694 140.225 4.83529 140.798 4.57031C141.371 4.29818 142.026 4.16211 142.764 4.16211C143.387 4.16211 143.938 4.24447 144.418 4.40918C144.905 4.57389 145.313 4.82812 145.643 5.17188C145.979 5.50846 146.233 5.94173 146.405 6.47168C146.577 7.00163 146.663 7.63184 146.663 8.3623V16H144.665V8.34082C144.665 7.68913 144.561 7.18424 144.354 6.82617C144.153 6.46094 143.867 6.20671 143.494 6.06348C143.129 5.91309 142.692 5.83789 142.184 5.83789C141.747 5.83789 141.36 5.91309 141.023 6.06348C140.687 6.21387 140.404 6.42155 140.175 6.68652C139.946 6.94434 139.77 7.24154 139.648 7.57812C139.534 7.91471 139.477 8.27279 139.477 8.65234Z" fill="black"/>
</svg>
